<svg xmlns="http://www.w3.org/2000/svg" width="160" height="160" viewBox="0 0 160 160" role="img" aria-labelledby="title desc" shape-rendering="crispEdges">
  <title id="title">Cute JRPG avatar</title>
  <desc id="desc">A cute 90s JRPG style avatar with glasses, goatee, red jacket, and black shirt.</desc>
  <rect width="160" height="160" fill="#07111f"/>
  <rect x="6" y="6" width="148" height="148" fill="#0b1d35" stroke="#f0b84f" stroke-width="4"/>
  <rect x="12" y="12" width="136" height="136" fill="#102846" stroke="#4bb8ff" stroke-width="2"/>
  <rect x="20" y="116" width="120" height="22" fill="#101319"/>
  <rect x="43" y="96" width="74" height="44" fill="#c71f2d"/>
  <rect x="54" y="96" width="52" height="44" fill="#1b1f28"/>
  <rect x="38" y="105" width="16" height="35" fill="#9c1826"/>
  <rect x="106" y="105" width="16" height="35" fill="#9c1826"/>
  <rect x="47" y="93" width="14" height="12" fill="#f0b84f"/>
  <rect x="99" y="93" width="14" height="12" fill="#f0b84f"/>
  <rect x="48" y="38" width="64" height="56" fill="#9c572d"/>
  <rect x="56" y="30" width="48" height="20" fill="#b86a38"/>
  <rect x="50" y="49" width="60" height="28" fill="#b86a38"/>
  <rect x="43" y="58" width="8" height="18" fill="#8a4726"/>
  <rect x="109" y="58" width="8" height="18" fill="#8a4726"/>
  <rect x="57" y="52" width="18" height="13" fill="#101319"/>
  <rect x="85" y="52" width="18" height="13" fill="#101319"/>
  <rect x="60" y="55" width="12" height="5" fill="#4bb8ff"/>
  <rect x="88" y="55" width="12" height="5" fill="#4bb8ff"/>
  <rect x="75" y="56" width="10" height="4" fill="#101319"/>
  <rect x="63" y="72" width="34" height="6" fill="#5f2c20"/>
  <rect x="67" y="78" width="26" height="8" fill="#321916"/>
  <rect x="72" y="83" width="16" height="5" fill="#5f2c20"/>
  <rect x="68" y="68" width="24" height="4" fill="#7a3921"/>
  <rect x="58" y="43" width="44" height="5" fill="#8a4726"/>
  <rect x="35" y="111" width="8" height="20" fill="#ff3348"/>
  <rect x="117" y="111" width="8" height="20" fill="#ff3348"/>
  <rect x="50" y="101" width="5" height="31" fill="#ff3348"/>
  <rect x="105" y="101" width="5" height="31" fill="#ff3348"/>
  <rect x="22" y="22" width="18" height="4" fill="#f0b84f"/>
  <rect x="22" y="22" width="4" height="18" fill="#f0b84f"/>
  <rect x="120" y="22" width="18" height="4" fill="#f0b84f"/>
  <rect x="134" y="22" width="4" height="18" fill="#f0b84f"/>
  <rect x="22" y="120" width="4" height="18" fill="#f0b84f"/>
  <rect x="22" y="134" width="18" height="4" fill="#f0b84f"/>
  <rect x="134" y="120" width="4" height="18" fill="#f0b84f"/>
  <rect x="120" y="134" width="18" height="4" fill="#f0b84f"/>
</svg>
