<svg xmlns="http://www.w3.org/2000/svg" viewBox="0 0 16 16" shape-rendering="crispEdges" aria-hidden="true">
  <!-- monitor frame -->
  <rect x="1" y="3" width="14" height="10" fill="#0b1220"/>
  <rect x="1" y="3" width="14" height="1" fill="#3d8bfd"/>
  <rect x="1" y="12" width="14" height="1" fill="#3d8bfd"/>
  <rect x="1" y="3" width="1" height="10" fill="#3d8bfd"/>
  <rect x="14" y="3" width="1" height="10" fill="#3d8bfd"/>
  <!-- corner rivets -->
  <rect x="1" y="2" width="1" height="1" fill="#9ba9ba"/>
  <rect x="14" y="2" width="1" height="1" fill="#9ba9ba"/>
  <rect x="1" y="13" width="1" height="1" fill="#9ba9ba"/>
  <rect x="14" y="13" width="1" height="1" fill="#9ba9ba"/>
  <!-- ekg trace -->
  <rect x="2" y="8" width="3" height="1" fill="#54d58a"/>
  <rect x="5" y="7" width="1" height="2" fill="#54d58a"/>
  <rect x="5" y="6" width="1" height="1" fill="#54d58a"/>
  <rect x="6" y="9" width="1" height="2" fill="#54d58a"/>
  <rect x="7" y="4" width="1" height="6" fill="#54d58a"/>
  <rect x="8" y="6" width="1" height="2" fill="#54d58a"/>
  <rect x="9" y="8" width="5" height="1" fill="#54d58a"/>
  <!-- glow pip -->
  <rect x="13" y="5" width="1" height="1" fill="#f6c768"/>
</svg>
